HIERARCHY
ROOT joint_Root
{
	OFFSET 0.0 0.0 0.0
	CHANNELS 6 Xposition Yposition Zposition Zrotation Xrotation Yrotation 
	JOINT Hips
	{
		OFFSET -17.1583 93.1646 452.98
		CHANNELS 6 Xposition Yposition Zposition Zrotation Xrotation Yrotation 
		JOINT Spine
		{
			OFFSET 15.7357 0.0 0.0
			CHANNELS 6 Xposition Yposition Zposition Zrotation Xrotation Yrotation 
			JOINT Chest
			{
				OFFSET 8.98455 -0.406207 0.0
				CHANNELS 6 Xposition Yposition Zposition Zrotation Xrotation Yrotation 
				JOINT Neck
				{
					OFFSET 16.3773 0.0 0.0
					CHANNELS 6 Xposition Yposition Zposition Zrotation Xrotation Yrotation 
					JOINT Head
					{
						OFFSET 6.45672 0.0 0.0
						CHANNELS 6 Xposition Yposition Zposition Zrotation Xrotation Yrotation 
						End Site
						{
							OFFSET 0.0 0.0 0.0
						}
					}
				}
				JOINT Shoulder_L
				{
					OFFSET 12.9942 -0.242716 4.98039
					CHANNELS 6 Xposition Yposition Zposition Zrotation Xrotation Yrotation 
					JOINT UpperArm_L
					{
						OFFSET 5.34809 0.0 0.0
						CHANNELS 6 Xposition Yposition Zposition Zrotation Xrotation Yrotation 
						JOINT LowerArm_L
						{
							OFFSET 24.3286 1.87007e-05 0.0
							CHANNELS 6 Xposition Yposition Zposition Zrotation Xrotation Yrotation 
							JOINT Hand_L
							{
								OFFSET 22.2916 0.0 0.0
								CHANNELS 6 Xposition Yposition Zposition Zrotation Xrotation Yrotation 
								End Site
								{
									OFFSET 0.0 0.0 0.0
								}
							}
						}
					}
				}
				JOINT Shoulder_R
				{
					OFFSET 12.9945 -0.242716 -4.98039
					CHANNELS 6 Xposition Yposition Zposition Zrotation Xrotation Yrotation 
					JOINT UpperArm_R
					{
						OFFSET -5.34813 0.0 0.0
						CHANNELS 6 Xposition Yposition Zposition Zrotation Xrotation Yrotation 
						JOINT LowerArm_R
						{
							OFFSET -24.3289 0.000322201 0.0
							CHANNELS 6 Xposition Yposition Zposition Zrotation Xrotation Yrotation 
							JOINT Hand_R
							{
								OFFSET -22.2915 -0.000108084 0.0
								CHANNELS 6 Xposition Yposition Zposition Zrotation Xrotation Yrotation 
								End Site
								{
									OFFSET 0.0 0.0 0.0
								}
							}
						}
					}
				}
			}
		}
		JOINT UpperLeg_L
		{
			OFFSET -2.19248 -6.46944 0.0
			CHANNELS 6 Xposition Yposition Zposition Zrotation Xrotation Yrotation 
			JOINT LowerLeg_L
			{
				OFFSET 39.0811 0.0 -1.23785e-05
				CHANNELS 6 Xposition Yposition Zposition Zrotation Xrotation Yrotation 
				JOINT Foot_L
				{
					OFFSET 40.9854 0.0 -1.26872e-05
					CHANNELS 6 Xposition Yposition Zposition Zrotation Xrotation Yrotation 
					JOINT Toes_L
					{
						OFFSET 11.7543 0.0 0.0
						CHANNELS 6 Xposition Yposition Zposition Zrotation Xrotation Yrotation 
						End Site
						{
							OFFSET 0.0 0.0 0.0
						}
					}
				}
			}
		}
		JOINT UpperLeg_R
		{
			OFFSET -2.19251 6.46944 0.0
			CHANNELS 6 Xposition Yposition Zposition Zrotation Xrotation Yrotation 
			JOINT LowerLeg_R
			{
				OFFSET -39.0811 -0.00228153 -0.0401928
				CHANNELS 6 Xposition Yposition Zposition Zrotation Xrotation Yrotation 
				JOINT Foot_R
				{
					OFFSET -40.9854 0.0 0.0
					CHANNELS 6 Xposition Yposition Zposition Zrotation Xrotation Yrotation 
					JOINT Toes_R
					{
						OFFSET -11.7543 0.0 0.0
						CHANNELS 6 Xposition Yposition Zposition Zrotation Xrotation Yrotation 
						End Site
						{
							OFFSET 0.0 0.0 0.0
						}
					}
				}
			}
		}
	}
}
MOTION
Frames:	7
Frame Time:	0.0333333
0.000000 0.000000 0.000000 0.000000 0.000000 -0.000000 1.264110 92.622200 2.708960 89.463800 3.961170 4.078330 15.735700 0.000005 -0.000001 68.619600 86.811500 -61.495000 8.984550 -0.406207 -0.000000 -1.607710 -2.905190 14.207800 16.377300 -0.000001 -0.000001 2.672490 4.059100 4.383670 6.456720 -0.000001 -0.000000 -15.159200 -2.722140 22.434800 12.994200 -0.242716 4.980390 -89.514800 -0.975606 -63.555600 5.348090 -0.000007 -0.000001 -58.728800 -54.285400 -102.868000 24.328600 0.000019 0.000005 0.925315 12.777200 -4.176640 22.291600 -0.000001 0.000005 31.226500 4.711490 12.950600 12.994500 -0.242716 -4.980390 87.262200 7.368790 -69.552200 -5.348130 -0.000001 -0.000004 -57.361200 8.152790 -6.405640 -24.328900 0.000322 -0.000009 1.124840 4.159780 -15.159400 -22.291500 -0.000108 -0.000004 5.596490 5.263140 1.082890 -2.192480 -6.469440 -0.000000 -174.543000 -9.556750 3.163560 39.081100 -0.000007 -0.000012 0.027701 -0.091855 16.782300 40.985400 -0.000006 -0.000013 1.881350 19.351500 -70.562500 11.754300 -0.000000 0.000003 -0.002284 0.199845 -8.468520 -2.192510 6.469440 -0.000001 173.775000 10.073000 -173.724000 -39.081100 -0.002282 -0.040193 0.012349 -0.038750 13.097100 -40.985400 0.000008 0.000006 -6.753680 4.808220 -69.499900 -11.754300 -0.000006 -0.000006 -0.011838 0.284559 -5.008520
0.000000 0.000000 0.000000 0.000000 0.000000 -0.000000 1.243830 92.625100 2.680950 89.459000 3.957840 4.042410 15.735700 0.000005 -0.000001 68.633600 86.804700 -61.528400 8.984550 -0.406207 -0.000000 -1.595160 -2.906310 14.169200 16.377300 -0.000001 -0.000001 2.834900 3.992010 4.340750 6.456720 -0.000001 -0.000000 -15.098400 -2.750250 22.435100 12.994200 -0.242716 4.980390 -89.527800 -0.945948 -63.470400 5.348090 -0.000007 -0.000001 -58.545300 -54.254000 -102.805000 24.328600 0.000019 0.000005 0.908221 13.082000 -4.006130 22.291600 -0.000001 0.000005 31.615500 4.708090 13.011600 12.994500 -0.242716 -4.980390 87.257100 7.360950 -69.497500 -5.348130 -0.000001 -0.000004 -57.406100 8.175710 -6.246620 -24.328900 0.000322 -0.000009 1.152700 4.228760 -15.275900 -22.291500 -0.000108 -0.000004 5.460040 5.261690 1.122050 -2.192480 -6.469440 -0.000000 -174.528000 -9.583990 3.104240 39.081100 -0.000007 -0.000012 0.027604 -0.091572 16.775600 40.985400 -0.000006 -0.000013 1.859060 19.361300 -70.483500 11.754300 -0.000000 0.000003 -0.002140 0.198090 -8.539930 -2.192510 6.469440 -0.000001 173.836000 10.042400 -173.784000 -39.081100 -0.002282 -0.040193 0.013941 -0.045568 13.104400 -40.985400 0.000008 0.000006 -6.582040 4.737060 -69.537700 -11.754300 -0.000006 -0.000006 -0.011882 0.284865 -4.996020
0.000000 0.000000 0.000000 0.000000 0.000000 -0.000000 1.214240 92.637000 2.663930 89.452800 4.003480 4.014580 15.735700 0.000005 -0.000001 68.426300 86.791400 -61.337800 8.984550 -0.406207 -0.000000 -1.577640 -2.935200 14.136000 16.377300 -0.000001 -0.000001 2.968890 3.942000 4.288610 6.456720 -0.000001 -0.000000 -14.963700 -2.845090 22.401500 12.994200 -0.242716 4.980390 -89.533800 -0.931506 -63.411700 5.348090 -0.000007 -0.000001 -58.656100 -54.276800 -102.843000 24.328600 0.000019 0.000005 0.933949 13.227900 -4.074780 22.291600 -0.000001 0.000005 31.874600 4.712580 12.930800 12.994500 -0.242716 -4.980390 87.275200 7.311860 -69.496900 -5.348130 -0.000001 -0.000004 -57.523100 8.218450 -6.043520 -24.328900 0.000322 -0.000009 1.156350 4.232530 -15.309100 -22.291500 -0.000108 -0.000004 5.307440 5.265620 1.016340 -2.192480 -6.469440 -0.000000 -174.513000 -9.537570 3.108040 39.081100 -0.000007 -0.000012 0.026253 -0.087650 16.674000 40.985400 -0.000006 -0.000013 1.826160 19.384500 -70.408900 11.754300 -0.000000 0.000003 -0.001867 0.194670 -8.679010 -2.192510 6.469440 -0.000001 173.845000 10.102300 -173.792000 -39.081100 -0.002282 -0.040193 0.012493 -0.039549 13.039700 -40.985400 0.000008 0.000006 -6.704680 4.758590 -69.461700 -11.754300 -0.000006 -0.000006 -0.011753 0.283967 -5.032790
0.000000 0.000000 0.000000 0.000000 0.000000 -0.000000 1.183270 92.642000 2.643890 89.400500 4.026820 3.967480 15.735700 0.000005 -0.000001 68.516200 86.806200 -61.428500 8.984550 -0.406207 -0.000000 -1.602710 -2.916480 14.133900 16.377300 -0.000001 -0.000001 3.099090 3.880170 4.273980 6.456720 -0.000001 -0.000000 -14.827200 -2.860210 22.299300 12.994200 -0.242716 4.980390 -89.537400 -0.923085 -63.378000 5.348090 -0.000007 -0.000001 -58.760700 -54.324400 -102.919000 24.328600 0.000019 0.000005 0.937974 13.257500 -4.083320 22.291600 -0.000001 0.000005 31.751700 4.710600 12.966700 12.994500 -0.242716 -4.980390 87.301400 7.231970 -69.473100 -5.348130 -0.000001 -0.000004 -57.665500 8.379220 -5.798090 -24.328900 0.000322 -0.000009 1.156620 4.238020 -15.293600 -22.291500 -0.000108 -0.000004 5.239170 5.264330 1.051050 -2.192480 -6.469440 -0.000000 -174.448000 -9.582120 3.006830 39.081100 -0.000007 -0.000012 0.026584 -0.088388 16.739900 40.985400 -0.000006 -0.000013 1.809590 19.394800 -70.495600 11.754300 -0.000000 0.000003 -0.002307 0.200123 -8.457230 -2.192510 6.469440 -0.000001 173.915000 10.173500 -173.818000 -39.081100 -0.002282 -0.040193 0.011538 -0.035623 12.969200 -40.985400 0.000008 0.000006 -6.715350 4.810010 -69.383600 -11.754300 -0.000006 -0.000006 -0.011650 0.283245 -5.062350
0.000000 0.000000 0.000000 0.000000 0.000000 -0.000000 1.156110 92.654500 2.632580 89.396300 4.033210 3.915090 15.735700 0.000005 -0.000001 68.510900 86.824800 -61.440700 8.984550 -0.406207 -0.000000 -1.638950 -2.904230 14.098300 16.377300 -0.000001 -0.000001 3.258020 3.890140 4.198130 6.456720 -0.000001 -0.000000 -14.693400 -2.891100 22.278800 12.994200 -0.242716 4.980390 -89.536200 -0.924209 -63.347600 5.348090 -0.000007 -0.000001 -58.546700 -54.426700 -102.789000 24.328600 0.000019 0.000005 0.887580 13.314900 -3.848260 22.291600 -0.000001 0.000005 32.000900 4.711300 12.953800 12.994500 -0.242716 -4.980390 87.330900 7.161810 -69.497700 -5.348130 -0.000001 -0.000004 -57.886200 8.285380 -5.590140 -24.328900 0.000322 -0.000009 1.191100 4.422590 -15.102300 -22.291500 -0.000108 -0.000004 5.235580 5.265930 1.008150 -2.192480 -6.469440 -0.000000 -174.435000 -9.592360 3.005840 39.081100 -0.000007 -0.000012 0.025760 -0.086307 16.619100 40.985400 -0.000006 -0.000013 1.785860 19.450100 -70.410800 11.754300 -0.000000 0.000003 -0.001921 0.195353 -8.651240 -2.192510 6.469440 -0.000001 173.927000 10.290400 -173.818000 -39.081100 -0.002282 -0.040193 0.010991 -0.033583 12.843500 -40.985400 0.000008 0.000006 -6.645520 4.858470 -69.295100 -11.754300 -0.000006 -0.000006 -0.011716 0.283710 -5.043290
0.000000 0.000000 0.000000 0.000000 0.000000 -0.000000 1.137100 92.665700 2.612520 89.371700 4.067260 3.841560 15.735700 0.000005 -0.000001 68.799700 86.855100 -61.748800 8.984550 -0.406207 -0.000000 -1.687750 -2.853870 14.059400 16.377300 -0.000001 -0.000001 3.363000 3.874430 4.170230 6.456720 -0.000001 -0.000000 -14.602700 -2.921160 22.202600 12.994200 -0.242716 4.980390 -89.522000 -0.950213 -63.293300 5.348090 -0.000007 -0.000001 -58.693200 -54.433400 -102.952000 24.328600 0.000019 0.000005 0.854979 13.343900 -3.699360 22.291600 -0.000001 0.000005 32.270300 4.701150 13.136900 12.994500 -0.242716 -4.980390 87.335800 7.133450 -69.458400 -5.348130 -0.000001 -0.000004 -58.035500 8.351650 -5.402720 -24.328900 0.000322 -0.000009 1.185910 4.467010 -14.897300 -22.291500 -0.000108 -0.000004 5.162720 5.262600 1.097430 -2.192480 -6.469440 -0.000000 -174.399000 -9.601650 2.931750 39.081100 -0.000007 -0.000012 0.025329 -0.085111 16.573100 40.985400 -0.000006 -0.000013 1.753240 19.484800 -70.400300 11.754300 -0.000000 0.000003 -0.002077 0.197312 -8.571580 -2.192510 6.469440 -0.000001 173.975000 10.278100 -173.857000 -39.081100 -0.002282 -0.040193 0.009655 -0.027945 12.744500 -40.985400 0.000008 0.000006 -6.747700 4.872270 -69.215400 -11.754300 -0.000006 -0.000006 -0.011995 0.285652 -4.963760
0.000000 0.000000 0.000000 0.000000 0.000000 -0.000000 1.121180 92.673500 2.591370 89.361500 4.083880 3.752360 15.735700 0.000005 -0.000001 68.761000 86.876900 -61.731100 8.984550 -0.406207 -0.000000 -1.731350 -2.843000 14.016700 16.377300 -0.000001 -0.000001 3.489320 3.886860 4.129830 6.456720 -0.000001 -0.000000 -14.575100 -2.886670 22.130500 12.994200 -0.242716 4.980390 -89.518300 -0.954935 -63.229700 5.348090 -0.000007 -0.000001 -58.845500 -54.546100 -103.109000 24.328600 0.000019 0.000005 0.811058 13.257000 -3.532320 22.291600 -0.000001 0.000005 32.246800 4.698080 13.192200 12.994500 -0.242716 -4.980390 87.370300 7.047710 -69.477500 -5.348130 -0.000001 -0.000004 -58.283600 8.284470 -5.282540 -24.328900 0.000322 -0.000009 1.206900 4.627870 -14.645900 -22.291500 -0.000108 -0.000004 5.184430 5.263280 1.079560 -2.192480 -6.469440 -0.000000 -174.408000 -9.566590 2.838000 39.081100 -0.000007 -0.000012 0.025349 -0.085393 16.534000 40.985400 -0.000006 -0.000013 1.730290 19.452700 -70.344600 11.754300 -0.000000 0.000003 -0.001917 0.195308 -8.653080 -2.192510 6.469440 -0.000001 173.996000 10.401300 -173.938000 -39.081100 -0.002282 -0.040193 0.009442 -0.027106 12.699500 -40.985400 0.000008 0.000006 -6.746010 4.931790 -69.151900 -11.754300 -0.000006 -0.000006 -0.011824 0.284465 -5.012400
